<?xml version="1.0" encoding="UTF-8"?>
<!DOCTYPE svg PUBLIC "-//W3C//DTD SVG 1.1//EN" "http://www.w3.org/Graphics/SVG/1.1/DTD/svg11.dtd">
<!-- Creator: CorelDRAW 2018 (64-Bit) -->
<svg xmlns="http://www.w3.org/2000/svg" xml:space="preserve" width="210mm" height="297mm" version="1.1" style="shape-rendering:geometricPrecision; text-rendering:geometricPrecision; image-rendering:optimizeQuality; fill-rule:evenodd; clip-rule:evenodd"
viewBox="0 0 21000 29700"
 xmlns:xlink="http://www.w3.org/1999/xlink">
 <defs>
  <style type="text/css">
   <![CDATA[
    .fil2 {fill:none}
    .fil3 {fill:#FEFEFE}
    .fil0 {fill:#7A645A}
    .fil4 {fill:#FEFEFE;fill-rule:nonzero}
    .fil1 {fill:#7A645A;fill-rule:nonzero}
   ]]>
  </style>
   <clipPath id="id0">
    <path d="M5277.6 14245.79l1.24 -1.25 -1.24 -1.24 283.66 -283.66 110.09 110.08 -174.81 174.82 174.81 174.86 -110.09 110.11 -283.66 -283.72zm821.47 -0.01l-1.24 -1.24 1.24 -1.25 -449.43 -449.43c-167.05,-167.06 -437.94,-170.87 -609.8,-11.58l28.92 28.91c111.18,-98.82 283,-95 389.5,11.47l421.87 421.88 -355.43 355.52c-110.35,110.37 -291.24,110.45 -401.69,0l-0.01 -0.01c-110.46,-110.46 -110.46,-291.23 0,-401.71l97.7 -97.69 -110.09 -110.11 -16.42 16.43c-170.87,170.98 -170.85,451.01 0.01,621.88l0.01 0.01c170.84,170.84 450.96,170.96 621.87,0l382.99 -383.08zm-410.74 167.72c6.9,-41.25 26.21,-85.23 56.98,-111.44 26.21,-30.77 70.19,-50.08 111.44,-56.98 -41.25,-6.89 -85.23,-26.21 -111.44,-56.98 -30.77,-26.21 -50.08,-70.19 -56.98,-111.44 -6.89,41.25 -26.2,85.23 -56.98,111.44 -26.2,30.77 -70.18,50.08 -111.44,56.98 41.26,6.9 85.24,26.21 111.44,56.98 30.78,26.2 50.09,70.19 56.98,111.44zm16.99 -597.92l21.71 -21.72c167.05,-167.05 437.94,-170.87 609.79,-11.58l-28.91 28.92c-111.17,-98.84 -283,-95.01 -389.5,11.46l-103 103.01 -110.09 -110.09zm110.09 747.9l36.56 36.58c110.36,110.36 291.25,110.44 401.7,0l0 -0.01c110.46,-110.46 110.46,-291.23 0,-401.71l-97.7 -97.7 110.09 -110.1 16.43 16.43c170.87,170.98 170.83,451.02 -0.02,621.88l-0.01 0.01c-155.99,155.98 -403.06,169.61 -574.95,40.68 8.75,-7.53 17.28,-15.42 25.56,-23.71l82.34 -82.35z"/>
   </clipPath>
    <clipPath id="id1">
     <path d="M5277.6 14245.79l1.24 -1.25 -1.24 -1.24 283.66 -283.66 110.09 110.08 -174.81 174.82 174.81 174.86 -110.09 110.11 -283.66 -283.72zm821.47 -0.01l-1.24 -1.24 1.24 -1.25 -449.43 -449.43c-167.05,-167.06 -437.94,-170.87 -609.8,-11.58l28.92 28.91c111.18,-98.82 283,-95 389.5,11.47l421.87 421.88 -355.43 355.52c-110.35,110.37 -291.24,110.45 -401.69,0l-0.01 -0.01c-110.46,-110.46 -110.46,-291.23 0,-401.71l97.7 -97.69 -110.09 -110.11 -16.42 16.43c-170.87,170.98 -170.85,451.01 0.01,621.88l0.01 0.01c170.84,170.84 450.96,170.96 621.87,0l382.99 -383.08zm-410.74 167.72c6.9,-41.25 26.21,-85.23 56.98,-111.44 26.21,-30.77 70.19,-50.08 111.44,-56.98 -41.25,-6.89 -85.23,-26.21 -111.44,-56.98 -30.77,-26.21 -50.08,-70.19 -56.98,-111.44 -6.89,41.25 -26.2,85.23 -56.98,111.44 -26.2,30.77 -70.18,50.08 -111.44,56.98 41.26,6.9 85.24,26.21 111.44,56.98 30.78,26.2 50.09,70.19 56.98,111.44zm16.99 -597.92l21.71 -21.72c167.05,-167.05 437.94,-170.87 609.79,-11.58l-28.91 28.92c-111.17,-98.84 -283,-95.01 -389.5,11.46l-103 103.01 -110.09 -110.09zm110.09 747.9l36.56 36.58c110.36,110.36 291.25,110.44 401.7,0l0 -0.01c110.46,-110.46 110.46,-291.23 0,-401.71l-97.7 -97.7 110.09 -110.1 16.43 16.43c170.87,170.98 170.83,451.02 -0.02,621.88l-0.01 0.01c-155.99,155.98 -403.06,169.61 -574.95,40.68 8.75,-7.53 17.28,-15.42 25.56,-23.71l82.34 -82.35z"/>
    </clipPath>
    <clipPath id="id2">
     <path d="M5277.6 14245.79l1.24 -1.25 -1.24 -1.24 283.66 -283.66 110.09 110.08 -174.81 174.82 174.81 174.86 -110.09 110.11 -283.66 -283.72zm821.47 -0.01l-1.24 -1.24 1.24 -1.25 -449.43 -449.43c-167.05,-167.06 -437.94,-170.87 -609.8,-11.58l28.92 28.91c111.18,-98.82 283,-95 389.5,11.47l421.87 421.88 -355.43 355.52c-110.35,110.37 -291.24,110.45 -401.69,0l-0.01 -0.01c-110.46,-110.46 -110.46,-291.23 0,-401.71l97.7 -97.69 -110.09 -110.11 -16.42 16.43c-170.87,170.98 -170.85,451.01 0.01,621.88l0.01 0.01c170.84,170.84 450.96,170.96 621.87,0l382.99 -383.08zm-410.74 167.72c6.9,-41.25 26.21,-85.23 56.98,-111.44 26.21,-30.77 70.19,-50.08 111.44,-56.98 -41.25,-6.89 -85.23,-26.21 -111.44,-56.98 -30.77,-26.21 -50.08,-70.19 -56.98,-111.44 -6.89,41.25 -26.2,85.23 -56.98,111.44 -26.2,30.77 -70.18,50.08 -111.44,56.98 41.26,6.9 85.24,26.21 111.44,56.98 30.78,26.2 50.09,70.19 56.98,111.44zm16.99 -597.92l21.71 -21.72c167.05,-167.05 437.94,-170.87 609.79,-11.58l-28.91 28.92c-111.17,-98.84 -283,-95.01 -389.5,11.46l-103 103.01 -110.09 -110.09zm110.09 747.9l36.56 36.58c110.36,110.36 291.25,110.44 401.7,0l0 -0.01c110.46,-110.46 110.46,-291.23 0,-401.71l-97.7 -97.7 110.09 -110.1 16.43 16.43c170.87,170.98 170.83,451.02 -0.02,621.88l-0.01 0.01c-155.99,155.98 -403.06,169.61 -574.95,40.68 8.75,-7.53 17.28,-15.42 25.56,-23.71l82.34 -82.35z"/>
    </clipPath>
   <clipPath id="id3">
    <path d="M13485.88 14245.79l1.24 -1.25 -1.24 -1.24 283.66 -283.66 110.09 110.08 -174.81 174.82 174.81 174.86 -110.09 110.11 -283.66 -283.72zm821.47 -0.01l-1.24 -1.24 1.24 -1.25 -449.43 -449.43c-167.05,-167.06 -437.94,-170.87 -609.8,-11.58l28.92 28.91c111.18,-98.82 283,-95 389.5,11.47l421.87 421.88 -355.43 355.52c-110.35,110.37 -291.24,110.45 -401.69,0l-0.01 -0.01c-110.46,-110.46 -110.46,-291.23 0,-401.71l97.7 -97.69 -110.09 -110.11 -16.42 16.43c-170.87,170.98 -170.85,451.01 0.01,621.88l0.01 0.01c170.84,170.84 450.96,170.96 621.87,0l382.99 -383.08zm-410.74 167.72c6.9,-41.25 26.21,-85.23 56.98,-111.44 26.21,-30.77 70.19,-50.08 111.44,-56.98 -41.25,-6.89 -85.23,-26.21 -111.44,-56.98 -30.77,-26.21 -50.08,-70.19 -56.98,-111.44 -6.89,41.25 -26.2,85.23 -56.98,111.44 -26.2,30.77 -70.18,50.08 -111.44,56.98 41.26,6.9 85.24,26.21 111.44,56.98 30.78,26.2 50.09,70.19 56.98,111.44zm16.99 -597.92l21.71 -21.72c167.05,-167.05 437.94,-170.87 609.79,-11.58l-28.91 28.92c-111.17,-98.84 -283,-95.01 -389.5,11.46l-103 103.01 -110.09 -110.09zm110.09 747.9l36.56 36.58c110.36,110.36 291.25,110.44 401.7,0l0 -0.01c110.46,-110.46 110.46,-291.23 0,-401.71l-97.7 -97.7 110.09 -110.1 16.43 16.43c170.87,170.98 170.83,451.02 -0.02,621.88l-0.01 0.01c-155.99,155.98 -403.06,169.61 -574.95,40.68 8.75,-7.53 17.28,-15.42 25.56,-23.71l82.34 -82.35z"/>
   </clipPath>
    <clipPath id="id4">
     <path d="M13485.88 14245.79l1.24 -1.25 -1.24 -1.24 283.66 -283.66 110.09 110.08 -174.81 174.82 174.81 174.86 -110.09 110.11 -283.66 -283.72zm821.47 -0.01l-1.24 -1.24 1.24 -1.25 -449.43 -449.43c-167.05,-167.06 -437.94,-170.87 -609.8,-11.58l28.92 28.91c111.18,-98.82 283,-95 389.5,11.47l421.87 421.88 -355.43 355.52c-110.35,110.37 -291.24,110.45 -401.69,0l-0.01 -0.01c-110.46,-110.46 -110.46,-291.23 0,-401.71l97.7 -97.69 -110.09 -110.11 -16.42 16.43c-170.87,170.98 -170.85,451.01 0.01,621.88l0.01 0.01c170.84,170.84 450.96,170.96 621.87,0l382.99 -383.08zm-410.74 167.72c6.9,-41.25 26.21,-85.23 56.98,-111.44 26.21,-30.77 70.19,-50.08 111.44,-56.98 -41.25,-6.89 -85.23,-26.21 -111.44,-56.98 -30.77,-26.21 -50.08,-70.19 -56.98,-111.44 -6.89,41.25 -26.2,85.23 -56.98,111.44 -26.2,30.77 -70.18,50.08 -111.44,56.98 41.26,6.9 85.24,26.21 111.44,56.98 30.78,26.2 50.09,70.19 56.98,111.44zm16.99 -597.92l21.71 -21.72c167.05,-167.05 437.94,-170.87 609.79,-11.58l-28.91 28.92c-111.17,-98.84 -283,-95.01 -389.5,11.46l-103 103.01 -110.09 -110.09zm110.09 747.9l36.56 36.58c110.36,110.36 291.25,110.44 401.7,0l0 -0.01c110.46,-110.46 110.46,-291.23 0,-401.71l-97.7 -97.7 110.09 -110.1 16.43 16.43c170.87,170.98 170.83,451.02 -0.02,621.88l-0.01 0.01c-155.99,155.98 -403.06,169.61 -574.95,40.68 8.75,-7.53 17.28,-15.42 25.56,-23.71l82.34 -82.35z"/>
    </clipPath>
    <clipPath id="id5">
     <path d="M13485.88 14245.79l1.24 -1.25 -1.24 -1.24 283.66 -283.66 110.09 110.08 -174.81 174.82 174.81 174.86 -110.09 110.11 -283.66 -283.72zm821.47 -0.01l-1.24 -1.24 1.24 -1.25 -449.43 -449.43c-167.05,-167.06 -437.94,-170.87 -609.8,-11.58l28.92 28.91c111.18,-98.82 283,-95 389.5,11.47l421.87 421.88 -355.43 355.52c-110.35,110.37 -291.24,110.45 -401.69,0l-0.01 -0.01c-110.46,-110.46 -110.46,-291.23 0,-401.71l97.7 -97.69 -110.09 -110.11 -16.42 16.43c-170.87,170.98 -170.85,451.01 0.01,621.88l0.01 0.01c170.84,170.84 450.96,170.96 621.87,0l382.99 -383.08zm-410.74 167.72c6.9,-41.25 26.21,-85.23 56.98,-111.44 26.21,-30.77 70.19,-50.08 111.44,-56.98 -41.25,-6.89 -85.23,-26.21 -111.44,-56.98 -30.77,-26.21 -50.08,-70.19 -56.98,-111.44 -6.89,41.25 -26.2,85.23 -56.98,111.44 -26.2,30.77 -70.18,50.08 -111.44,56.98 41.26,6.9 85.24,26.21 111.44,56.98 30.78,26.2 50.09,70.19 56.98,111.44zm16.99 -597.92l21.71 -21.72c167.05,-167.05 437.94,-170.87 609.79,-11.58l-28.91 28.92c-111.17,-98.84 -283,-95.01 -389.5,11.46l-103 103.01 -110.09 -110.09zm110.09 747.9l36.56 36.58c110.36,110.36 291.25,110.44 401.7,0l0 -0.01c110.46,-110.46 110.46,-291.23 0,-401.71l-97.7 -97.7 110.09 -110.1 16.43 16.43c170.87,170.98 170.83,451.02 -0.02,621.88l-0.01 0.01c-155.99,155.98 -403.06,169.61 -574.95,40.68 8.75,-7.53 17.28,-15.42 25.56,-23.71l82.34 -82.35z"/>
    </clipPath>
 </defs>
 <g id="Layer_x0020_1">
  <metadata id="CorelCorpID_0Corel-Layer"/>
  <path class="fil0" d="M4044.09 15640.5c24.95,-10.14 40.56,-23.6 46.79,-40.36 6.24,-16.76 9.36,-43.87 9.36,-81.31l0 -349.93c0,-3.9 -0.78,-7.61 -2.34,-11.12 -1.56,-3.5 -2.94,-6.63 -4.09,-9.36 -1.15,-2.73 -3.53,-5.27 -7.02,-7.6 -3.5,-2.33 -6.25,-4.3 -8.2,-5.85 -1.93,-1.55 -5.07,-3.13 -9.35,-4.68 -4.28,-1.55 -7.22,-2.74 -8.77,-3.51 -1.56,-0.77 -4.69,-1.96 -9.37,-3.51 -4.66,-1.55 -7.4,-2.34 -8.18,-2.34l80.72 0c14.81,0 27.69,5.46 38.61,16.38 10.91,10.91 16.37,23.81 16.37,38.6l0 153.4c51.48,-10.14 97.49,-35.48 138.05,-76.04 40.55,-40.55 62.78,-84.62 66.68,-132.2l78.38 0c-12.48,50.7 -42.11,95.15 -88.91,133.37 -46.8,38.22 -99.44,63.17 -157.93,74.87 29.64,1.56 56.93,8.97 81.89,22.23 24.96,13.25 48.94,33.14 71.95,59.66 23,26.52 42.89,52.45 59.65,77.79 16.77,25.36 37.25,59.09 61.43,101.2 0.77,0.79 1.56,1.95 2.33,3.51 13.27,24.18 28.47,39.77 45.63,46.8l0 0 1.17 0 0 0 -1.17 0 0 0 0 0 0 0 -1.17 0 0 0 -1.16 0 0 0 -1.17 0 0 0 -1.18 0 -1.17 0 0 0 -1.17 0 -1.17 0 -1.17 0 -1.17 0 -1.17 0 -1.17 0 -1.16 0 -1.17 0 -1.17 0 -1.18 0 -1.17 0 -1.17 0 -1.17 0 -1.17 0 -1.17 0 -1.17 0 -1.16 0 -1.17 0 -1.17 0 -1.17 0 -1.18 0 -1.17 0 -1.17 0 -1.17 0 -1.17 0 -1.16 0 -1.17 0 -1.17 0 -1.17 0 -1.17 0 -1.17 0 -1.18 0 -1.17 0 -1.17 0 -1.17 0 -1.16 0 -1.17 0 -1.17 0 -1.17 0 -1.17 0 -1.17 0 -1.17 0 -1.18 0 -1.17 0 -1.17 0 -1.16 0 -1.17 0 -1.17 0 -1.17 0 -1.17 0 -1.17 0 -1.17 0 -1.17 0 -1.18 0 -1.16 0 -1.17 0 -1.17 0 -1.17 0 -1.17 0 -1.17 0 -1.17 0 -1.17 0 -1.17 0 -1.17 0 -1.17 0 -1.17 0 -1.17 0 -1.17 0 -1.17 0 -1.17 0 -1.17 0 -1.17 0 -1.17 0 -1.17 0 -1.16 0 -1.18 0 -1.17 0 -1.17 0 -1.17 0 -1.17 0 -1.17 0 -1.17 0 -1.17 0 -1.16 0 -1.17 0 -1.17 0 -1.18 0 -1.17 0 -1.17 0 -1.17 0 -1.17 0 -1.17 0 -1.17 0 -1.16 0 -1.17 0 -1.17 0 -1.17 0 -1.17 0 -1.18 0 -1.17 0 -1.17 0 -1.17 0 -1.17 0 -1.16 0 -1.17 0 -10.53 0c3.12,-1.57 5.65,-3.51 7.6,-5.85 1.95,-2.35 3.32,-4.69 4.1,-7.02 0.77,-2.34 1.36,-4.49 1.75,-6.43 0.39,-1.96 0.19,-4.49 -0.59,-7.61 -0.77,-3.12 -1.36,-5.65 -1.75,-7.61 -0.39,-1.94 -1.37,-4.67 -2.92,-8.18 -1.56,-3.52 -2.93,-6.05 -4.1,-7.61 -1.17,-1.56 -2.72,-4.09 -4.68,-7.6 -1.94,-3.52 -3.31,-6.04 -4.09,-7.61 -3.12,-5.46 -10.14,-18.52 -21.06,-39.19 -10.91,-20.67 -19.3,-35.87 -25.15,-45.63 -5.85,-9.74 -14.43,-23.78 -25.74,-42.11 -11.31,-18.33 -21.64,-32.37 -31,-42.11 -9.36,-9.75 -20.27,-20.48 -32.76,-32.18 -12.48,-11.69 -25.34,-20.27 -38.61,-25.73 -13.25,-5.46 -26.9,-8.58 -40.94,-9.36l0 180.16c0,19.49 0.39,33.92 1.17,43.28 0.79,9.37 2.73,19.9 5.85,31.59 3.12,11.7 8.77,21.06 16.96,28.08 8.2,7.02 18.92,13.25 32.17,18.72l-190.68 0z"/>
  <path class="fil1" d="M4905.1 15480.22l0 -218.76c-12.48,16.38 -30.61,30.42 -54.4,42.12 -23.79,11.69 -46.4,20.47 -67.86,26.32 -21.45,5.85 -43.09,15.4 -64.93,28.66 -21.83,13.26 -37.82,29.63 -47.96,49.13 -19.5,35.88 -21.06,72.53 -4.68,109.97 16.38,37.43 43.68,61.22 81.89,71.36 37.44,9.36 72.35,3.12 104.71,-18.72 32.37,-21.84 50.11,-51.86 53.23,-90.08zm0 116.99c0,-14.82 -2.93,-24.38 -8.77,-28.67 -5.85,-4.28 -16.19,-0.19 -31.01,12.29 -38.99,39.77 -85.79,59.66 -140.39,59.66 -31.19,0 -59.46,-7.99 -84.81,-23.98 -25.35,-15.99 -44.45,-36.07 -57.32,-60.25 -12.87,-24.18 -19.11,-51.08 -18.72,-80.72 0.39,-29.63 9.16,-56.93 26.32,-81.89 14.04,-19.49 34.12,-35.87 60.25,-49.13 26.13,-13.26 51.28,-22.62 75.45,-28.08 24.18,-5.45 50.31,-11.69 78.39,-18.71 28.08,-7.02 49.14,-14.43 63.17,-22.23 23.4,-13.26 35.49,-32.17 36.27,-56.74 0.78,-24.56 -7.99,-46.01 -26.32,-64.34 -18.33,-18.33 -40.36,-26.71 -66.1,-25.15 -31.2,2.34 -57.14,16.18 -77.8,41.53 -20.67,25.35 -39.97,64.93 -57.91,118.74l-56.15 -74.87c29.63,-29.64 59.07,-52.64 88.32,-69.02 29.25,-16.38 63.76,-24.57 103.54,-24.57 21.84,-0.78 42.51,1.56 62,7.02 19.5,5.46 37.83,13.84 54.99,25.15 17.15,11.31 30.8,27.1 40.94,47.38 10.14,20.28 15.21,44.45 15.21,72.53l0 245.67c0,19.49 0.39,33.92 1.17,43.28 0.78,9.36 2.73,19.89 5.85,31.59 3.12,11.69 8.58,21.05 16.37,28.07 7.8,7.02 18.72,13.26 32.76,18.72 -10.14,0 -23.4,0 -39.77,0 -19.5,0 -33.34,0 -41.53,0 -8.19,0 -16.97,-0.58 -26.32,-1.75 -9.36,-1.17 -15.41,-3.51 -18.14,-7.02 -2.73,-3.51 -4.87,-7.8 -6.43,-12.87 -1.56,-5.07 -2.73,-12.29 -3.51,-21.64z"/>
  <path class="fil1" d="M5088.77 15640.49c24.95,-10.14 40.55,-23.59 46.79,-40.36 6.24,-16.77 9.36,-43.87 9.36,-81.3l0 -349.79c0,-3.89 -0.78,-7.79 -2.34,-11.69 -1.56,-3.9 -2.93,-7.02 -4.1,-9.36 -1.17,-2.34 -3.5,-4.88 -7.01,-7.61 -3.51,-2.73 -6.24,-4.68 -8.19,-5.85 -1.95,-1.17 -5.07,-2.73 -9.36,-4.68 -4.29,-1.94 -7.22,-3.11 -8.78,-3.5 -1.56,-0.39 -4.68,-1.37 -9.35,-2.93 -4.68,-1.56 -7.41,-2.34 -8.19,-2.34l80.72 0c14.81,0 27.68,5.46 38.6,16.38 10.92,10.92 16.38,23.79 16.38,38.6l0 88.91c6.24,-34.31 19.51,-63.17 39.78,-86.57 20.28,-23.39 43.29,-39.58 69.02,-48.55 25.74,-8.96 52.84,-11.5 81.31,-7.6 28.46,3.9 54.39,13.26 77.79,28.08 23.4,14.82 42.9,36.26 58.49,64.34 15.6,28.07 23.4,60.44 23.4,97.09l0 207.07c0,19.49 0.2,33.92 0.59,43.28 0.39,9.36 2.33,19.89 5.84,31.59 3.51,11.69 9.17,21.05 16.97,28.07 7.8,7.02 18.32,13.26 31.58,18.72l-190.68 0c14.04,-5.46 24.96,-11.7 32.75,-18.72 7.8,-7.02 13.46,-16.38 16.97,-28.07 3.51,-11.7 5.46,-22.23 5.85,-31.59 0.39,-9.36 0.58,-23.79 0.58,-43.28l0 -214.08c0,-59.28 -22.62,-100.22 -67.85,-122.84 -45.23,-22.61 -90.27,-21.25 -135.12,4.1 -44.84,25.34 -67.27,66.87 -67.27,124.59l0 208.23c0,19.49 0.39,33.92 1.17,43.28 0.78,9.36 2.73,19.89 5.85,31.59 3.12,11.69 8.78,21.05 16.97,28.07 8.19,7.02 18.91,13.26 32.17,18.72l-190.69 0z"/>
  <path class="fil0" d="M5906.5 15640.5l-80.72 0 -171.96 -471.45c-10.14,-26.52 -29.25,-42.5 -57.32,-47.97l80.72 0c14.03,0 24.96,4.11 32.75,12.29 7.79,8.17 14.28,20.53 19.89,36.85l146.95 427.71 133.28 -448.15c2.06,-6.89 0.4,-12.67 -3.5,-16.96 -3.9,-4.29 -9.78,-6.44 -17.55,-6.44l-3.5 0 0 -5.84 95.19 0 0 25.01 -5.84 0c-14.82,0 -25.13,8.93 -30.42,26.9l-137.97 468.05z"/>
  <path class="fil1" d="M6213.01 14994.74c11.7,0 21.65,4.29 29.83,12.87 8.19,8.58 12.29,18.71 12.29,30.41 0,11.7 -4.1,21.64 -12.29,29.83 -8.18,8.19 -18.32,12.29 -30.41,12.29 -12.09,0 -22.23,-4.1 -30.42,-12.29 -8.19,-8.19 -12.28,-18.13 -12.28,-29.83 0,-6.24 1.17,-11.89 3.51,-16.96 2.34,-5.07 5.46,-9.55 9.36,-13.45 3.9,-3.9 8.38,-7.02 13.45,-9.36 5.07,-2.34 10.72,-3.51 16.96,-3.51zm98.27 645.75l-190.68 0c24.95,-10.14 40.55,-23.59 46.79,-40.36 6.24,-16.77 9.36,-43.87 9.36,-81.3l0 -349.79c0,-3.89 -0.78,-7.79 -2.34,-11.69 -1.56,-3.9 -2.93,-7.02 -4.1,-9.36 -1.17,-2.34 -3.5,-4.88 -7.01,-7.61 -3.51,-2.73 -6.24,-4.68 -8.19,-5.85 -1.95,-1.17 -5.07,-2.73 -9.36,-4.68 -4.29,-1.94 -7.22,-3.11 -8.78,-3.5 -1.56,-0.39 -4.68,-1.37 -9.35,-2.93 -4.68,-1.56 -7.41,-2.34 -8.19,-2.34l80.72 0c10.13,0 19.3,2.54 27.49,7.61 8.19,5.06 14.81,11.69 19.88,19.88 5.07,8.19 7.61,17.35 7.61,27.49l0 342.77c0,19.49 0.39,33.92 1.17,43.28 0.78,9.36 2.73,19.89 5.85,31.59 3.12,11.69 8.77,21.05 16.96,28.07 8.19,7.02 18.91,13.26 32.17,18.72z"/>
  <path class="fil1" d="M6603.75 15121.08c45.24,0 86.77,12.28 124.59,36.85 37.82,24.57 67.27,57.52 88.32,98.85l-79.55 0c-8.57,-36.65 -25.93,-66.87 -52.05,-90.66 -26.13,-23.79 -53.23,-35.68 -81.31,-35.68 -23.39,0 -44.84,8.38 -64.34,25.15 -19.5,16.77 -34.9,37.83 -46.21,63.17 -11.31,25.35 -20.08,51.09 -26.32,77.21 -6.24,26.13 -9.75,50.11 -10.53,71.95 0,35.87 4.68,69.99 14.04,102.36 9.36,32.36 25.54,61.61 48.55,87.74 23.01,26.12 51.28,42.7 84.81,49.71 74.09,14.04 143.5,-12.47 208.23,-79.54 -21.83,36.65 -52.83,64.53 -93,83.64 -40.16,19.11 -80.13,28.66 -119.91,28.66 -66.29,0 -122.25,-25.35 -167.87,-76.04 -45.62,-50.69 -68.43,-111.91 -68.43,-183.66 0,-71.75 23.59,-132.98 70.77,-183.67 47.18,-50.69 103.92,-76.04 170.21,-76.04z"/>
  <path class="fil1" d="M7198.04 15480.22l0 -218.76c-12.48,16.38 -30.61,30.42 -54.4,42.12 -23.79,11.69 -46.4,20.47 -67.85,26.32 -21.45,5.85 -43.09,15.4 -64.93,28.66 -21.83,13.26 -37.82,29.63 -47.96,49.13 -19.5,35.88 -21.06,72.53 -4.68,109.97 16.38,37.43 43.68,61.22 81.89,71.36 37.44,9.36 72.34,3.12 104.7,-18.72 32.37,-21.84 50.11,-51.86 53.23,-90.08zm0 116.99c0,-14.82 -2.93,-24.38 -8.77,-28.67 -5.85,-4.28 -16.19,-0.19 -31.01,12.29 -38.99,39.77 -85.78,59.66 -140.38,59.66 -31.19,0 -59.46,-7.99 -84.81,-23.98 -25.35,-15.99 -44.45,-36.07 -57.32,-60.25 -12.87,-24.18 -19.11,-51.08 -18.72,-80.72 0.39,-29.63 9.16,-56.93 26.32,-81.89 14.04,-19.49 34.12,-35.87 60.25,-49.13 26.13,-13.26 51.28,-22.62 75.45,-28.08 24.18,-5.45 50.31,-11.69 78.38,-18.71 28.08,-7.02 49.14,-14.43 63.17,-22.23 23.4,-13.26 35.49,-32.17 36.27,-56.74 0.78,-24.56 -7.99,-46.01 -26.32,-64.34 -18.33,-18.33 -40.36,-26.71 -66.1,-25.15 -31.19,2.34 -57.13,16.18 -77.79,41.53 -20.67,25.35 -39.97,64.93 -57.91,118.74l-56.15 -74.87c29.63,-29.64 59.07,-52.64 88.32,-69.02 29.25,-16.38 63.76,-24.57 103.53,-24.57 21.84,-0.78 42.51,1.56 62,7.02 19.5,5.46 37.83,13.84 54.99,25.15 17.15,11.31 30.8,27.1 40.94,47.38 10.14,20.28 15.21,44.45 15.21,72.53l0 245.67c0,19.49 0.39,33.92 1.17,43.28 0.78,9.36 2.73,19.89 5.85,31.59 3.12,11.69 8.58,21.05 16.37,28.07 7.8,7.02 18.72,13.26 32.76,18.72 -10.14,0 -23.4,0 -39.77,0 -19.5,0 -33.34,0 -41.53,0 -8.19,0 -16.97,-0.58 -26.32,-1.75 -9.36,-1.17 -15.41,-3.51 -18.14,-7.02 -2.73,-3.51 -4.87,-7.8 -6.43,-12.87 -1.56,-5.07 -2.73,-12.29 -3.51,-21.64z"/>
  <g>
  </g>
  <g style="clip-path:url(#id0)">
   <g>
   </g>
   <g style="clip-path:url(#id1)">
    <image transform="matrix(1.73934E-15 -0.0656737 -0.0656737 -1.73934E-15 6824.81 15431.5)" x="0" y="0" width="35277.78" height="38100" xlink:href="Kanvica Brown_Images\Kanvica Brown_ImgID1.png"/>
   </g>
   <g style="clip-path:url(#id2)">
   </g>
  </g>
  <path class="fil2" d="M5277.6 14245.79l1.24 -1.25 -1.24 -1.24 283.66 -283.66 110.09 110.08 -174.81 174.82 174.81 174.86 -110.09 110.11 -283.66 -283.72zm821.47 -0.01l-1.24 -1.24 1.24 -1.25 -449.43 -449.43c-167.05,-167.06 -437.94,-170.87 -609.8,-11.58l28.92 28.91c111.18,-98.82 283,-95 389.5,11.47l421.87 421.88 -355.43 355.52c-110.35,110.37 -291.24,110.45 -401.69,0l-0.01 -0.01c-110.46,-110.46 -110.46,-291.23 0,-401.71l97.7 -97.69 -110.09 -110.11 -16.42 16.43c-170.87,170.98 -170.85,451.01 0.01,621.88l0.01 0.01c170.84,170.84 450.96,170.96 621.87,0l382.99 -383.08zm-410.74 167.72c6.9,-41.25 26.21,-85.23 56.98,-111.44 26.21,-30.77 70.19,-50.08 111.44,-56.98 -41.25,-6.89 -85.23,-26.21 -111.44,-56.98 -30.77,-26.21 -50.08,-70.19 -56.98,-111.44 -6.89,41.25 -26.2,85.23 -56.98,111.44 -26.2,30.77 -70.18,50.08 -111.44,56.98 41.26,6.9 85.24,26.21 111.44,56.98 30.78,26.2 50.09,70.19 56.98,111.44zm16.99 -597.92l21.71 -21.72c167.05,-167.05 437.94,-170.87 609.79,-11.58l-28.91 28.92c-111.17,-98.84 -283,-95.01 -389.5,11.46l-103 103.01 -110.09 -110.09zm110.09 747.9l36.56 36.58c110.36,110.36 291.25,110.44 401.7,0l0 -0.01c110.46,-110.46 110.46,-291.23 0,-401.71l-97.7 -97.7 110.09 -110.1 16.43 16.43c170.87,170.98 170.83,451.02 -0.02,621.88l-0.01 0.01c-155.99,155.98 -403.06,169.61 -574.95,40.68 8.75,-7.53 17.28,-15.42 25.56,-23.71l82.34 -82.35z"/>
  <path class="fil1" d="M4444.36 15985.81c0,-30.78 -21.62,-42.73 -49.59,-54.43 -25.69,-10.43 -39.42,-18.31 -39.42,-36.37 0,-17.29 15,-28.23 34.08,-28.23 17.8,0 33.57,6.61 43.74,26.7l1.78 -1.01 -2.29 -21.11c-9.15,-7.89 -22.89,-12.46 -41.96,-12.46 -28.49,0 -51.63,15.26 -51.63,43.23 0,23.65 17.29,34.85 45.01,47.05 26.45,11.45 42.99,21.37 42.99,42.22 0,20.35 -15.26,35.1 -39.17,35.1 -19.58,0 -39.93,-11.19 -52.14,-33.83l-2.03 0.77 4.07 24.92c10.68,9.16 30.26,16.02 49.59,16.02 32.05,0 56.97,-18.31 56.97,-48.57zm141.91 -78.08c0,-27.98 -27.46,-45.27 -73.24,-45.27 -10.43,0 -24.42,0.25 -34.34,0.76l0 1.27c4.33,0.51 7.63,2.8 7.89,10.68 0.25,7.38 0.5,31.79 0.5,71.47 0,39.42 -0.25,63.84 -0.5,71.47 -0.26,6.86 -2.29,9.15 -7.89,11.44l0.26 1.27c5.08,-0.51 12.2,-0.76 17.8,-0.76 5.85,0 13.22,0.25 18.06,0.76l0.25 -1.27c-5.59,-2.29 -7.63,-4.58 -7.88,-11.44 -0.26,-7.38 -0.51,-31.54 -0.51,-60.03 3.05,0.26 5.34,0.26 7.88,0.26 43.49,0 71.72,-16.53 71.72,-50.61zm-21.62 0c0,25.68 -13.73,43.23 -48.06,43.23 -3.31,0 -6.62,0 -9.92,-0.25 0,-39.68 0.25,-69.18 0.51,-81.64 38.65,0 57.47,9.92 57.47,38.66zm173.46 107.32c-15.01,-29.5 -53.67,-111.65 -73,-154.37l-3.56 0c-21.4,48.57 -56.25,121.31 -73.84,156.41 -3.56,7.37 -8.9,10.94 -13.73,12.46l0.25 1.27c4.84,-0.51 9.92,-0.76 15.81,-0.76 4.84,0 10.94,0.25 16.28,1.02l0.26 -1.53c-7.38,-2.54 -9.67,-6.1 -6.36,-14.5 3.56,-8.64 9.41,-21.87 16.02,-36.87l82.4 0c8.4,18.05 15.26,33.06 18.06,39.67 3.05,6.36 1.02,9.16 -6.1,11.7l0.5 1.53c6.62,-0.77 15.01,-1.02 21.37,-1.02 6.36,0 13.99,0.25 20.34,0.76l0.26 -1.27c-5.09,-1.52 -11.19,-7.12 -15.01,-14.5l0.05 0zm-118.56 -44.76c12.46,-28.48 27.46,-61.55 37.13,-82.15 8.9,18.57 24.92,52.9 38.4,82.15l-75.53 0zm268.11 56.46c-9.41,2.04 -15.77,-4.83 -33.07,-34.59 -10.42,-18.05 -23.14,-36.87 -37.64,-41.96 29.51,-4.83 50.11,-19.84 50.11,-45.78 0,-22.89 -21.37,-41.96 -68.16,-41.96 -10.43,0 -24.42,0.25 -34.34,0.76l0 1.27c4.33,0.51 7.63,2.8 7.89,10.68 0.25,7.38 0.5,31.79 0.5,71.47 0,39.42 -0.25,63.84 -0.5,71.47 -0.26,6.86 -2.29,9.15 -7.89,11.44l0.26 1.27c5.08,-0.51 12.2,-0.76 17.8,-0.76 5.85,0 13.22,0.25 18.06,0.76l0.25 -1.27c-5.59,-2.29 -7.63,-4.58 -7.88,-11.44 -0.26,-7.63 -0.51,-32.05 -0.51,-66.89 3.56,0.25 7.12,0.25 10.93,0.25 13.99,2.29 22.89,18.57 29.51,36.12 8.13,22.38 16.53,44.76 39.42,44.76 5.59,0 11.44,-1.02 15.51,-4.07l-0.25 -1.53zm-94.61 -157.94c36.62,0 52.39,10.94 52.39,35.61 0,23.15 -12.97,39.93 -44.76,39.93 -2.8,0 -5.34,-0.25 -8.14,-0.51 0,-33.57 0.25,-62.31 0.51,-75.03zm249.49 146.46c-16.53,-16.28 -45.52,-45.83 -82.91,-84.27l63.84 -54.77c8.65,-7.37 17.8,-11.23 22.63,-12.5l-0.25 -1.27c-5.34,0.51 -12.97,0.76 -17.8,0.76 -5.09,0 -11.45,-0.25 -18.32,-0.76l-0.25 1.27c5.09,1.27 5.85,6.14 -2.29,14.03 -11.19,11.44 -36.88,35.14 -74.77,69.26l0 -0.25c0,-39.72 0.25,-64.18 0.51,-71.81 0.25,-6.61 2.29,-9.2 7.88,-11.23l-0.25 -1.27c-4.84,0.51 -12.21,0.76 -17.81,0.76 -5.85,0 -12.97,-0.25 -18.05,-0.76l-0.26 1.27c5.6,2.29 7.63,4.62 7.89,11.49 0.25,7.37 0.5,31.83 0.5,71.55 0,39.29 -0.25,63.71 -0.5,71.34 -0.26,6.86 -2.29,9.15 -7.89,11.44l0.26 1.27c5.08,-0.51 12.2,-0.76 18.05,-0.76 5.6,0 12.97,0.25 17.81,0.76l0.25 -1.27c-5.59,-2.29 -7.63,-4.58 -7.88,-11.44 -0.26,-7.12 -0.51,-28.74 -0.51,-63.59 4.83,-4.07 9.15,-7.88 13.48,-11.44 31.03,31.96 56.71,57.94 70.96,72.7 6.61,7.37 5.59,12.5 -0.26,14.28l0.26 1.27c5.34,-1.02 20.6,-1.27 25.43,-1.27 5.08,0 17.8,0.25 22.63,1.02l0.26 -1.27c-4.83,-1.28 -15.26,-7.38 -22.64,-14.76l0 0.22zm230.68 14.28c-5.59,-2.29 -7.63,-4.58 -7.88,-11.44 -0.26,-7.63 -0.51,-32.05 -0.51,-71.47 0,-39.68 0.25,-64.09 0.51,-71.72 0.25,-6.61 2.29,-9.16 7.88,-11.19l-0.25 -1.27c-4.84,0.51 -12.21,0.76 -17.81,0.76 -5.85,0 -12.97,-0.25 -18.05,-0.76l-0.26 1.27c5.6,2.29 7.63,4.58 7.89,11.44 0.25,7.38 0.5,31.79 0.5,71.47 0,39.42 -0.25,63.84 -0.5,71.47 -0.26,6.86 -2.29,9.15 -7.89,11.44l0.26 1.27c5.08,-0.51 12.2,-0.76 18.05,-0.76 5.6,0 12.97,0.25 17.81,0.76l0.25 -1.27zm198.88 -167.09c-4.83,0.51 -9.41,0.76 -13.22,0.76 -4.07,0 -8.65,-0.25 -12.72,-0.76l-0.25 1.27c4.07,1.52 7.37,3.56 7.88,10.43 0.77,12.71 1.78,34.08 1.78,72.48 0,20.85 0.26,39.93 0.51,54.17 -34.08,-37.38 -76.3,-84.44 -122.59,-137.84 -4.32,0.5 -8.64,0.5 -12.97,0.5 -3.81,-0.25 -8.9,-0.5 -15,-1.01l-0.26 1.27c6.11,2.54 9.16,6.87 9.41,15.26 0.26,6.86 0.51,27.97 0.51,67.65 0,39.42 -0.76,59.77 -1.52,72.48 -0.26,6.62 -3.56,8.65 -7.89,10.43l0.26 1.27c4.83,-0.51 9.41,-0.76 13.22,-0.76 4.07,0 8.65,0.25 12.72,0.76l0.25 -1.27c-4.07,-1.78 -7.37,-3.81 -7.88,-10.43 -0.76,-12.71 -1.78,-34.33 -1.78,-72.48 0,-31.79 0,-49.85 -0.51,-66.63 43.74,48.57 87.49,96.9 136.83,154.37l5.09 0c-0.77,-16.78 -1.02,-48.32 -1.02,-87.74 0,-39.68 0.76,-59.77 1.52,-72.48 0.26,-6.87 3.57,-8.91 7.89,-10.43l-0.26 -1.27zm68.67 167.09c-5.59,-2.29 -7.63,-4.58 -7.88,-11.44 -0.26,-7.63 -0.51,-32.05 -0.51,-71.47 0,-39.68 0.25,-64.09 0.51,-71.72 0.25,-6.61 2.29,-9.16 7.88,-11.19l-0.25 -1.27c-4.84,0.51 -12.21,0.76 -17.81,0.76 -5.85,0 -12.97,-0.25 -18.05,-0.76l-0.26 1.27c5.6,2.29 7.63,4.58 7.89,11.44 0.25,7.38 0.5,31.79 0.5,71.47 0,39.42 -0.25,63.84 -0.5,71.47 -0.26,6.86 -2.29,9.15 -7.89,11.44l0.26 1.27c5.08,-0.51 12.2,-0.76 18.05,-0.76 5.6,0 12.97,0.25 17.81,0.76l0.25 -1.27zm166.33 -146.49c-2.29,-5.6 -4.83,-14.25 -6.1,-19.84l-133.78 0c-1.02,5.59 -3.82,14.5 -6.11,20.09l1.28 1.02c15.77,-11.19 34.59,-15.01 57.98,-15.01l4.07 0 0 77.32c0,39.42 -0.25,63.84 -0.51,71.47 -0.25,6.86 -2.28,9.15 -7.88,11.44l0.25 1.27c5.09,-0.51 12.21,-0.76 17.81,-0.76 5.85,0 13.22,0.25 18.06,0.76l0.25 -1.27c-5.6,-2.29 -7.63,-4.58 -7.88,-11.44 -0.26,-7.63 -0.51,-32.05 -0.51,-71.47l0 -77.32 4.07 0c23.39,0 41.96,3.82 57.73,15.01l1.27 -1.27zm56.72 146.49c-5.59,-2.29 -7.63,-4.58 -7.88,-11.44 -0.26,-7.63 -0.51,-32.05 -0.51,-71.47 0,-39.68 0.25,-64.09 0.51,-71.72 0.25,-6.61 2.29,-9.16 7.88,-11.19l-0.25 -1.27c-4.84,0.51 -12.21,0.76 -17.81,0.76 -5.85,0 -12.97,-0.25 -18.05,-0.76l-0.26 1.27c5.6,2.29 7.63,4.58 7.89,11.44 0.25,7.38 0.5,31.79 0.5,71.47 0,39.42 -0.25,63.84 -0.5,71.47 -0.26,6.86 -2.29,9.15 -7.89,11.44l0.26 1.27c5.08,-0.51 12.2,-0.76 18.05,-0.76 5.6,0 12.97,0.25 17.81,0.76l0.25 -1.27zm175.49 -14.5c-15.01,-29.5 -53.67,-111.65 -73,-154.37l-3.56 0c-21.4,48.57 -56.25,121.31 -73.84,156.41 -3.56,7.37 -8.9,10.94 -13.73,12.46l0.25 1.27c4.84,-0.51 9.92,-0.76 15.81,-0.76 4.84,0 10.94,0.25 16.28,1.02l0.26 -1.53c-7.38,-2.54 -9.67,-6.1 -6.36,-14.5 3.56,-8.64 9.41,-21.87 16.02,-36.87l82.4 0c8.4,18.05 15.26,33.06 18.06,39.67 3.05,6.36 1.02,9.16 -6.1,11.7l0.5 1.53c6.62,-0.77 15.01,-1.02 21.37,-1.02 6.36,0 13.99,0.25 20.34,0.76l0.26 -1.27c-5.09,-1.52 -11.19,-7.12 -15.01,-14.5l0.05 0zm-118.56 -44.76c12.46,-28.48 27.46,-61.55 37.13,-82.15 8.9,18.57 24.92,52.9 38.4,82.15l-75.53 0zm255.39 -87.23c-2.29,-5.6 -4.83,-14.25 -6.1,-19.84l-133.78 0c-1.02,5.59 -3.82,14.5 -6.11,20.09l1.28 1.02c15.77,-11.19 34.59,-15.01 57.98,-15.01l4.07 0 0 77.32c0,39.42 -0.25,63.84 -0.51,71.47 -0.25,6.86 -2.28,9.15 -7.88,11.44l0.25 1.27c5.09,-0.51 12.21,-0.76 17.81,-0.76 5.85,0 13.22,0.25 18.06,0.76l0.25 -1.27c-5.6,-2.29 -7.63,-4.58 -7.88,-11.44 -0.26,-7.63 -0.51,-32.05 -0.51,-71.47l0 -77.32 4.07 0c23.39,0 41.96,3.82 57.73,15.01l1.27 -1.27zm131.75 147c2.29,-5.85 6.61,-15.26 9.15,-20.09l-1.27 -1.02c-16.78,12.46 -44.51,15.01 -73.5,15.01l-17.29 0c-0.26,-9.67 -0.51,-38.92 -0.51,-76.56 55.95,0.26 59.51,1.53 62.56,10.68l1.27 -0.25c-0.76,-4.58 -1.01,-8.14 -1.01,-13.73 0,-5.6 0.25,-8.91 1.01,-13.74l-1.27 -0.25c-2.79,8.39 -6.61,10.43 -62.56,10.68 0,-34.08 0.25,-60.53 0.51,-70.96 7.37,-0.51 14.75,-0.76 21.61,-0.76 22.89,0 42.73,2.54 57.23,15l1.52 -1.01c-2.54,-6.11 -4.83,-13.99 -6.1,-19.84l-84.44 0c-5.85,0 -12.97,-0.25 -18.05,-0.76l-0.26 1.27c5.6,2.29 7.63,4.58 7.89,11.44 0.25,7.38 0.5,31.79 0.5,71.47 0,39.42 -0.25,63.84 -0.5,71.47 -0.26,6.86 -2.29,9.15 -7.89,11.44l0.26 1.27c5.08,-0.51 12.2,-0.76 18.05,-0.76l93.09 0zm333.94 -15.01c-15.01,-29.5 -53.67,-111.65 -73,-154.37l-3.56 0c-21.4,48.57 -56.25,121.31 -73.84,156.41 -3.56,7.37 -8.9,10.94 -13.73,12.46l0.25 1.27c4.84,-0.51 9.92,-0.76 15.81,-0.76 4.84,0 10.94,0.25 16.28,1.02l0.26 -1.53c-7.38,-2.54 -9.67,-6.1 -6.36,-14.5 3.56,-8.64 9.41,-21.87 16.02,-36.87l82.4 0c8.4,18.05 15.26,33.06 18.06,39.67 3.05,6.36 1.02,9.16 -6.1,11.7l0.5 1.53c6.62,-0.77 15.01,-1.02 21.37,-1.02 6.36,0 13.99,0.25 20.34,0.76l0.26 -1.27c-5.09,-1.52 -11.19,-7.12 -15.01,-14.5l0.05 0zm-118.56 -44.76c12.46,-28.48 27.46,-61.55 37.13,-82.15 8.9,18.57 24.92,52.9 38.4,82.15l-75.53 0zm268.11 56.46c-9.41,2.04 -15.77,-4.83 -33.07,-34.59 -10.42,-18.05 -23.14,-36.87 -37.64,-41.96 29.51,-4.83 50.11,-19.84 50.11,-45.78 0,-22.89 -21.37,-41.96 -68.16,-41.96 -10.43,0 -24.42,0.25 -34.34,0.76l0 1.27c4.33,0.51 7.63,2.8 7.89,10.68 0.25,7.38 0.5,31.79 0.5,71.47 0,39.42 -0.25,63.84 -0.5,71.47 -0.26,6.86 -2.29,9.15 -7.89,11.44l0.26 1.27c5.08,-0.51 12.2,-0.76 17.8,-0.76 5.85,0 13.22,0.25 18.06,0.76l0.25 -1.27c-5.59,-2.29 -7.63,-4.58 -7.88,-11.44 -0.26,-7.63 -0.51,-32.05 -0.51,-66.89 3.56,0.25 7.12,0.25 10.93,0.25 13.99,2.29 22.89,18.57 29.51,36.12 8.13,22.38 16.53,44.76 39.42,44.76 5.59,0 11.44,-1.02 15.51,-4.07l-0.25 -1.53zm-94.61 -157.94c36.62,0 52.39,10.94 52.39,35.61 0,23.15 -12.97,39.93 -44.76,39.93 -2.8,0 -5.34,-0.25 -8.14,-0.51 0,-33.57 0.25,-62.31 0.51,-75.03zm147.76 160.74c-5.59,-2.29 -7.63,-4.58 -7.88,-11.44 -0.26,-7.63 -0.51,-32.05 -0.51,-71.47 0,-39.68 0.25,-64.09 0.51,-71.72 0.25,-6.61 2.29,-9.16 7.88,-11.19l-0.25 -1.27c-4.84,0.51 -12.21,0.76 -17.81,0.76 -5.85,0 -12.97,-0.25 -18.05,-0.76l-0.26 1.27c5.6,2.29 7.63,4.58 7.89,11.44 0.25,7.38 0.5,31.79 0.5,71.47 0,39.42 -0.25,63.84 -0.5,71.47 -0.26,6.86 -2.29,9.15 -7.89,11.44l0.26 1.27c5.08,-0.51 12.2,-0.76 18.05,-0.76 5.6,0 12.97,0.25 17.81,0.76l0.25 -1.27zm143.44 -43.74c0,-30.78 -21.62,-42.73 -49.59,-54.43 -25.69,-10.43 -39.42,-18.31 -39.42,-36.37 0,-17.29 15,-28.23 34.08,-28.23 17.8,0 33.57,6.61 43.74,26.7l1.78 -1.01 -2.29 -21.11c-9.15,-7.89 -22.89,-12.46 -41.96,-12.46 -28.49,0 -51.63,15.26 -51.63,43.23 0,23.65 17.29,34.85 45.01,47.05 26.45,11.45 42.99,21.37 42.99,42.22 0,20.35 -15.26,35.1 -39.17,35.1 -19.58,0 -39.93,-11.19 -52.14,-33.83l-2.03 0.77 4.07 24.92c10.68,9.16 30.26,16.02 49.59,16.02 32.05,0 56.97,-18.31 56.97,-48.57zm145.73 44.25c2.29,-5.85 6.61,-15.26 9.15,-20.09l-1.27 -1.02c-16.78,12.46 -44.51,15.01 -73.5,15.01l-17.29 0c-0.26,-9.67 -0.51,-38.92 -0.51,-76.56 55.95,0.26 59.51,1.53 62.56,10.68l1.27 -0.25c-0.76,-4.58 -1.01,-8.14 -1.01,-13.73 0,-5.6 0.25,-8.91 1.01,-13.74l-1.27 -0.25c-2.79,8.39 -6.61,10.43 -62.56,10.68 0,-34.08 0.25,-60.53 0.51,-70.96 7.37,-0.51 14.75,-0.76 21.61,-0.76 22.89,0 42.73,2.54 57.23,15l1.52 -1.01c-2.54,-6.11 -4.83,-13.99 -6.1,-19.84l-84.44 0c-5.85,0 -12.97,-0.25 -18.05,-0.76l-0.26 1.27c5.6,2.29 7.63,4.58 7.89,11.44 0.25,7.38 0.5,31.79 0.5,71.47 0,39.42 -0.25,63.84 -0.5,71.47 -0.26,6.86 -2.29,9.15 -7.89,11.44l0.26 1.27c5.08,-0.51 12.2,-0.76 18.05,-0.76l93.09 0z"/>
  <path class="fil0" d="M5134.25 15988.9c1.73,-10.36 6.58,-21.4 14.3,-27.98 6.58,-7.72 17.62,-12.57 27.97,-14.3 -10.35,-1.73 -21.39,-6.58 -27.97,-14.3 -7.72,-6.58 -12.57,-17.62 -14.3,-27.97 -1.73,10.35 -6.58,21.39 -14.3,27.97 -6.58,7.72 -17.62,12.57 -27.97,14.3 10.35,1.73 21.39,6.58 27.97,14.3 7.72,6.58 12.57,17.62 14.3,27.98z"/>
  <path class="fil0" d="M6308.11 15988.9c1.74,-10.36 6.58,-21.4 14.31,-27.98 6.57,-7.72 17.61,-12.57 27.97,-14.3 -10.36,-1.73 -21.39,-6.58 -27.97,-14.3 -7.73,-6.58 -12.57,-17.62 -14.31,-27.97 -1.73,10.35 -6.57,21.39 -14.3,27.97 -6.57,7.72 -17.62,12.57 -27.97,14.3 10.35,1.73 21.4,6.58 27.97,14.3 7.73,6.58 12.57,17.62 14.3,27.98z"/>
  <path class="fil0" d="M7399.56 15117.48c30.44,0 55.11,24.67 55.11,55.11 0,30.43 -24.67,55.1 -55.11,55.1 -30.44,0 -55.11,-24.67 -55.11,-55.1 0,-30.44 24.67,-55.11 55.11,-55.11zm0 9.49c25.19,0 45.61,20.42 45.61,45.62 0,25.19 -20.42,45.61 -45.61,45.61 -25.19,0 -45.61,-20.42 -45.61,-45.61 0,-25.2 20.42,-45.62 45.61,-45.62z"/>
  <path class="fil0" d="M7409.67 15203.81l-14.38 -24.98 -7.81 0 0 24.98 -10.25 0 0 -62.45 21.57 0c4.79,0 8.85,0.84 12.17,2.52 3.33,1.68 5.81,3.92 7.46,6.74 1.65,2.81 2.47,5.96 2.47,9.43 0,4.08 -1.18,7.77 -3.55,11.1 -2.36,3.32 -6,5.58 -10.91,6.78l15.45 25.88 -12.22 0zm-22.19 -33.16l11.32 0c3.83,0 6.72,-0.95 8.67,-2.87 1.94,-1.92 2.92,-4.49 2.92,-7.73 0,-3.23 -0.96,-5.76 -2.88,-7.59 -1.91,-1.83 -4.82,-2.74 -8.71,-2.74l-11.32 0 0 20.93z"/>
  <polygon class="fil0" points="10957.07,11850 16957.07,11850 16957.07,17850 10957.07,17850 "/>
  <path class="fil3" d="M12252.37 15640.5c24.95,-10.14 40.56,-23.6 46.79,-40.36 6.24,-16.76 9.36,-43.87 9.36,-81.31l0 -349.93c0,-3.9 -0.78,-7.61 -2.34,-11.12 -1.56,-3.5 -2.94,-6.63 -4.09,-9.36 -1.15,-2.73 -3.53,-5.27 -7.02,-7.6 -3.5,-2.33 -6.25,-4.3 -8.2,-5.85 -1.93,-1.55 -5.07,-3.13 -9.35,-4.68 -4.28,-1.55 -7.22,-2.74 -8.77,-3.51 -1.56,-0.77 -4.69,-1.96 -9.37,-3.51 -4.66,-1.55 -7.4,-2.34 -8.18,-2.34l80.72 0c14.81,0 27.69,5.46 38.61,16.38 10.91,10.91 16.37,23.81 16.37,38.6l0 153.4c51.48,-10.14 97.49,-35.48 138.05,-76.04 40.55,-40.55 62.78,-84.62 66.68,-132.2l78.38 0c-12.48,50.7 -42.11,95.15 -88.91,133.37 -46.8,38.22 -99.44,63.17 -157.93,74.87 29.64,1.56 56.93,8.97 81.89,22.23 24.96,13.25 48.94,33.14 71.95,59.66 23,26.52 42.89,52.45 59.65,77.79 16.77,25.36 37.25,59.09 61.43,101.2 0.77,0.79 1.56,1.95 2.33,3.51 13.27,24.18 28.47,39.77 45.63,46.8l0 0 1.17 0 0 0 -1.17 0 0 0 0 0 0 0 -1.17 0 0 0 -1.16 0 0 0 -1.17 0 0 0 -1.18 0 -1.17 0 0 0 -1.17 0 -1.17 0 -1.17 0 -1.17 0 -1.17 0 -1.17 0 -1.16 0 -1.17 0 -1.17 0 -1.18 0 -1.17 0 -1.17 0 -1.17 0 -1.17 0 -1.17 0 -1.17 0 -1.16 0 -1.17 0 -1.17 0 -1.17 0 -1.18 0 -1.17 0 -1.17 0 -1.17 0 -1.17 0 -1.16 0 -1.17 0 -1.17 0 -1.17 0 -1.17 0 -1.17 0 -1.18 0 -1.17 0 -1.17 0 -1.17 0 -1.16 0 -1.17 0 -1.17 0 -1.17 0 -1.17 0 -1.17 0 -1.17 0 -1.18 0 -1.17 0 -1.17 0 -1.16 0 -1.17 0 -1.17 0 -1.17 0 -1.17 0 -1.17 0 -1.17 0 -1.17 0 -1.18 0 -1.16 0 -1.17 0 -1.17 0 -1.17 0 -1.17 0 -1.17 0 -1.17 0 -1.17 0 -1.17 0 -1.17 0 -1.17 0 -1.17 0 -1.17 0 -1.17 0 -1.17 0 -1.17 0 -1.17 0 -1.17 0 -1.17 0 -1.17 0 -1.16 0 -1.18 0 -1.17 0 -1.17 0 -1.17 0 -1.17 0 -1.17 0 -1.17 0 -1.17 0 -1.16 0 -1.17 0 -1.17 0 -1.18 0 -1.17 0 -1.17 0 -1.17 0 -1.17 0 -1.17 0 -1.17 0 -1.16 0 -1.17 0 -1.17 0 -1.17 0 -1.17 0 -1.18 0 -1.17 0 -1.17 0 -1.17 0 -1.17 0 -1.16 0 -1.17 0 -10.53 0c3.12,-1.57 5.65,-3.51 7.6,-5.85 1.95,-2.35 3.32,-4.69 4.1,-7.02 0.77,-2.34 1.36,-4.49 1.75,-6.43 0.39,-1.96 0.19,-4.49 -0.59,-7.61 -0.77,-3.12 -1.36,-5.65 -1.75,-7.61 -0.39,-1.94 -1.37,-4.67 -2.92,-8.18 -1.56,-3.52 -2.93,-6.05 -4.1,-7.61 -1.17,-1.56 -2.72,-4.09 -4.68,-7.6 -1.94,-3.52 -3.31,-6.04 -4.09,-7.61 -3.12,-5.46 -10.14,-18.52 -21.06,-39.19 -10.91,-20.67 -19.3,-35.87 -25.15,-45.63 -5.85,-9.74 -14.43,-23.78 -25.74,-42.11 -11.31,-18.33 -21.64,-32.37 -31,-42.11 -9.36,-9.75 -20.27,-20.48 -32.76,-32.18 -12.48,-11.69 -25.34,-20.27 -38.61,-25.73 -13.25,-5.46 -26.9,-8.58 -40.94,-9.36l0 180.16c0,19.49 0.39,33.92 1.17,43.28 0.79,9.37 2.73,19.9 5.85,31.59 3.12,11.7 8.77,21.06 16.96,28.08 8.2,7.02 18.92,13.25 32.17,18.72l-190.68 0z"/>
  <path class="fil4" d="M13113.38 15480.22l0 -218.76c-12.48,16.38 -30.61,30.42 -54.4,42.12 -23.79,11.69 -46.4,20.47 -67.86,26.32 -21.45,5.85 -43.09,15.4 -64.93,28.66 -21.83,13.26 -37.82,29.63 -47.96,49.13 -19.5,35.88 -21.06,72.53 -4.68,109.97 16.38,37.43 43.68,61.22 81.89,71.36 37.44,9.36 72.35,3.12 104.71,-18.72 32.37,-21.84 50.11,-51.86 53.23,-90.08zm0 116.99c0,-14.82 -2.93,-24.38 -8.77,-28.67 -5.85,-4.28 -16.19,-0.19 -31.01,12.29 -38.99,39.77 -85.79,59.66 -140.39,59.66 -31.19,0 -59.46,-7.99 -84.81,-23.98 -25.35,-15.99 -44.45,-36.07 -57.32,-60.25 -12.87,-24.18 -19.11,-51.08 -18.72,-80.72 0.39,-29.63 9.16,-56.93 26.32,-81.89 14.04,-19.49 34.12,-35.87 60.25,-49.13 26.13,-13.26 51.28,-22.62 75.45,-28.08 24.18,-5.45 50.31,-11.69 78.39,-18.71 28.08,-7.02 49.14,-14.43 63.17,-22.23 23.4,-13.26 35.49,-32.17 36.27,-56.74 0.78,-24.56 -7.99,-46.01 -26.32,-64.34 -18.33,-18.33 -40.36,-26.71 -66.1,-25.15 -31.2,2.34 -57.14,16.18 -77.8,41.53 -20.67,25.35 -39.97,64.93 -57.91,118.74l-56.15 -74.87c29.63,-29.64 59.07,-52.64 88.32,-69.02 29.25,-16.38 63.76,-24.57 103.54,-24.57 21.84,-0.78 42.51,1.56 62,7.02 19.5,5.46 37.83,13.84 54.99,25.15 17.15,11.31 30.8,27.1 40.94,47.38 10.14,20.28 15.21,44.45 15.21,72.53l0 245.67c0,19.49 0.39,33.92 1.17,43.28 0.78,9.36 2.73,19.89 5.85,31.59 3.12,11.69 8.58,21.05 16.37,28.07 7.8,7.02 18.72,13.26 32.76,18.72 -10.14,0 -23.4,0 -39.77,0 -19.5,0 -33.34,0 -41.53,0 -8.19,0 -16.97,-0.58 -26.32,-1.75 -9.36,-1.17 -15.41,-3.51 -18.14,-7.02 -2.73,-3.51 -4.87,-7.8 -6.43,-12.87 -1.56,-5.07 -2.73,-12.29 -3.51,-21.64z"/>
  <path class="fil4" d="M13297.05 15640.49c24.95,-10.14 40.55,-23.59 46.79,-40.36 6.24,-16.77 9.36,-43.87 9.36,-81.3l0 -349.79c0,-3.89 -0.78,-7.79 -2.34,-11.69 -1.56,-3.9 -2.93,-7.02 -4.1,-9.36 -1.17,-2.34 -3.5,-4.88 -7.01,-7.61 -3.51,-2.73 -6.24,-4.68 -8.19,-5.85 -1.95,-1.17 -5.07,-2.73 -9.36,-4.68 -4.29,-1.94 -7.22,-3.11 -8.78,-3.5 -1.56,-0.39 -4.68,-1.37 -9.35,-2.93 -4.68,-1.56 -7.41,-2.34 -8.19,-2.34l80.72 0c14.81,0 27.68,5.46 38.6,16.38 10.92,10.92 16.38,23.79 16.38,38.6l0 88.91c6.24,-34.31 19.51,-63.17 39.78,-86.57 20.28,-23.39 43.29,-39.58 69.02,-48.55 25.74,-8.96 52.84,-11.5 81.31,-7.6 28.46,3.9 54.39,13.26 77.79,28.08 23.4,14.82 42.9,36.26 58.49,64.34 15.6,28.07 23.4,60.44 23.4,97.09l0 207.07c0,19.49 0.2,33.92 0.59,43.28 0.39,9.36 2.33,19.89 5.84,31.59 3.51,11.69 9.17,21.05 16.97,28.07 7.8,7.02 18.32,13.26 31.58,18.72l-190.68 0c14.04,-5.46 24.96,-11.7 32.75,-18.72 7.8,-7.02 13.46,-16.38 16.97,-28.07 3.51,-11.7 5.46,-22.23 5.85,-31.59 0.39,-9.36 0.58,-23.79 0.58,-43.28l0 -214.08c0,-59.28 -22.62,-100.22 -67.85,-122.84 -45.23,-22.61 -90.27,-21.25 -135.12,4.1 -44.84,25.34 -67.27,66.87 -67.27,124.59l0 208.23c0,19.49 0.39,33.92 1.17,43.28 0.78,9.36 2.73,19.89 5.85,31.59 3.12,11.69 8.78,21.05 16.97,28.07 8.19,7.02 18.91,13.26 32.17,18.72l-190.69 0z"/>
  <path class="fil3" d="M14114.78 15640.5l-80.72 0 -171.96 -471.45c-10.14,-26.52 -29.25,-42.5 -57.32,-47.97l80.72 0c14.03,0 24.96,4.11 32.75,12.29 7.79,8.17 14.28,20.53 19.89,36.85l146.95 427.71 133.28 -448.15c2.06,-6.89 0.4,-12.67 -3.5,-16.96 -3.9,-4.29 -9.78,-6.44 -17.55,-6.44l-3.5 0 0 -5.84 95.19 0 0 25.01 -5.84 0c-14.82,0 -25.13,8.93 -30.42,26.9l-137.97 468.05z"/>
  <path class="fil4" d="M14421.29 14994.74c11.7,0 21.65,4.29 29.83,12.87 8.19,8.58 12.29,18.71 12.29,30.41 0,11.7 -4.1,21.64 -12.29,29.83 -8.18,8.19 -18.32,12.29 -30.41,12.29 -12.09,0 -22.23,-4.1 -30.42,-12.29 -8.19,-8.19 -12.28,-18.13 -12.28,-29.83 0,-6.24 1.17,-11.89 3.51,-16.96 2.34,-5.07 5.46,-9.55 9.36,-13.45 3.9,-3.9 8.38,-7.02 13.45,-9.36 5.07,-2.34 10.72,-3.51 16.96,-3.51zm98.27 645.75l-190.68 0c24.95,-10.14 40.55,-23.59 46.79,-40.36 6.24,-16.77 9.36,-43.87 9.36,-81.3l0 -349.79c0,-3.89 -0.78,-7.79 -2.34,-11.69 -1.56,-3.9 -2.93,-7.02 -4.1,-9.36 -1.17,-2.34 -3.5,-4.88 -7.01,-7.61 -3.51,-2.73 -6.24,-4.68 -8.19,-5.85 -1.95,-1.17 -5.07,-2.73 -9.36,-4.68 -4.29,-1.94 -7.22,-3.11 -8.78,-3.5 -1.56,-0.39 -4.68,-1.37 -9.35,-2.93 -4.68,-1.56 -7.41,-2.34 -8.19,-2.34l80.72 0c10.13,0 19.3,2.54 27.49,7.61 8.19,5.06 14.81,11.69 19.88,19.88 5.07,8.19 7.61,17.35 7.61,27.49l0 342.77c0,19.49 0.39,33.92 1.17,43.28 0.78,9.36 2.73,19.89 5.85,31.59 3.12,11.69 8.77,21.05 16.96,28.07 8.19,7.02 18.91,13.26 32.17,18.72z"/>
  <path class="fil4" d="M14812.03 15121.08c45.24,0 86.77,12.28 124.59,36.85 37.82,24.57 67.27,57.52 88.32,98.85l-79.55 0c-8.57,-36.65 -25.93,-66.87 -52.05,-90.66 -26.13,-23.79 -53.23,-35.68 -81.31,-35.68 -23.39,0 -44.84,8.38 -64.34,25.15 -19.5,16.77 -34.9,37.83 -46.21,63.17 -11.31,25.35 -20.08,51.09 -26.32,77.21 -6.24,26.13 -9.75,50.11 -10.53,71.95 0,35.87 4.68,69.99 14.04,102.36 9.36,32.36 25.54,61.61 48.55,87.74 23.01,26.12 51.28,42.7 84.81,49.71 74.09,14.04 143.5,-12.47 208.23,-79.54 -21.83,36.65 -52.83,64.53 -93,83.64 -40.16,19.11 -80.13,28.66 -119.91,28.66 -66.29,0 -122.25,-25.35 -167.87,-76.04 -45.62,-50.69 -68.43,-111.91 -68.43,-183.66 0,-71.75 23.59,-132.98 70.77,-183.67 47.18,-50.69 103.92,-76.04 170.21,-76.04z"/>
  <path class="fil4" d="M15406.32 15480.22l0 -218.76c-12.48,16.38 -30.61,30.42 -54.4,42.12 -23.79,11.69 -46.4,20.47 -67.85,26.32 -21.45,5.85 -43.09,15.4 -64.93,28.66 -21.83,13.26 -37.82,29.63 -47.96,49.13 -19.5,35.88 -21.06,72.53 -4.68,109.97 16.38,37.43 43.68,61.22 81.89,71.36 37.44,9.36 72.34,3.12 104.7,-18.72 32.37,-21.84 50.11,-51.86 53.23,-90.08zm0 116.99c0,-14.82 -2.93,-24.38 -8.77,-28.67 -5.85,-4.28 -16.19,-0.19 -31.01,12.29 -38.99,39.77 -85.78,59.66 -140.38,59.66 -31.19,0 -59.46,-7.99 -84.81,-23.98 -25.35,-15.99 -44.45,-36.07 -57.32,-60.25 -12.87,-24.18 -19.11,-51.08 -18.72,-80.72 0.39,-29.63 9.16,-56.93 26.32,-81.89 14.04,-19.49 34.12,-35.87 60.25,-49.13 26.13,-13.26 51.28,-22.62 75.45,-28.08 24.18,-5.45 50.31,-11.69 78.38,-18.71 28.08,-7.02 49.14,-14.43 63.17,-22.23 23.4,-13.26 35.49,-32.17 36.27,-56.74 0.78,-24.56 -7.99,-46.01 -26.32,-64.34 -18.33,-18.33 -40.36,-26.71 -66.1,-25.15 -31.19,2.34 -57.13,16.18 -77.79,41.53 -20.67,25.35 -39.97,64.93 -57.91,118.74l-56.15 -74.87c29.63,-29.64 59.07,-52.64 88.32,-69.02 29.25,-16.38 63.76,-24.57 103.53,-24.57 21.84,-0.78 42.51,1.56 62,7.02 19.5,5.46 37.83,13.84 54.99,25.15 17.15,11.31 30.8,27.1 40.94,47.38 10.14,20.28 15.21,44.45 15.21,72.53l0 245.67c0,19.49 0.39,33.92 1.17,43.28 0.78,9.36 2.73,19.89 5.85,31.59 3.12,11.69 8.58,21.05 16.37,28.07 7.8,7.02 18.72,13.26 32.76,18.72 -10.14,0 -23.4,0 -39.77,0 -19.5,0 -33.34,0 -41.53,0 -8.19,0 -16.97,-0.58 -26.32,-1.75 -9.36,-1.17 -15.41,-3.51 -18.14,-7.02 -2.73,-3.51 -4.87,-7.8 -6.43,-12.87 -1.56,-5.07 -2.73,-12.29 -3.51,-21.64z"/>
  <g>
  </g>
  <g style="clip-path:url(#id3)">
   <g>
   </g>
   <g style="clip-path:url(#id4)">
    <image transform="matrix(1.73934E-15 -0.0656737 -0.0656737 -1.73934E-15 15033.1 15431.5)" x="0" y="0" width="35277.78" height="38100" xlink:href="Kanvica Brown_Images\Kanvica Brown_ImgID2.png"/>
   </g>
   <g style="clip-path:url(#id5)">
   </g>
  </g>
  <path class="fil2" d="M13485.88 14245.79l1.24 -1.25 -1.24 -1.24 283.66 -283.66 110.09 110.08 -174.81 174.82 174.81 174.86 -110.09 110.11 -283.66 -283.72zm821.47 -0.01l-1.24 -1.24 1.24 -1.25 -449.43 -449.43c-167.05,-167.06 -437.94,-170.87 -609.8,-11.58l28.92 28.91c111.18,-98.82 283,-95 389.5,11.47l421.87 421.88 -355.43 355.52c-110.35,110.37 -291.24,110.45 -401.69,0l-0.01 -0.01c-110.46,-110.46 -110.46,-291.23 0,-401.71l97.7 -97.69 -110.09 -110.11 -16.42 16.43c-170.87,170.98 -170.85,451.01 0.01,621.88l0.01 0.01c170.84,170.84 450.96,170.96 621.87,0l382.99 -383.08zm-410.74 167.72c6.9,-41.25 26.21,-85.23 56.98,-111.44 26.21,-30.77 70.19,-50.08 111.44,-56.98 -41.25,-6.89 -85.23,-26.21 -111.44,-56.98 -30.77,-26.21 -50.08,-70.19 -56.98,-111.44 -6.89,41.25 -26.2,85.23 -56.98,111.44 -26.2,30.77 -70.18,50.08 -111.44,56.98 41.26,6.9 85.24,26.21 111.44,56.98 30.78,26.2 50.09,70.19 56.98,111.44zm16.99 -597.92l21.71 -21.72c167.05,-167.05 437.94,-170.87 609.79,-11.58l-28.91 28.92c-111.17,-98.84 -283,-95.01 -389.5,11.46l-103 103.01 -110.09 -110.09zm110.09 747.9l36.56 36.58c110.36,110.36 291.25,110.44 401.7,0l0 -0.01c110.46,-110.46 110.46,-291.23 0,-401.71l-97.7 -97.7 110.09 -110.1 16.43 16.43c170.87,170.98 170.83,451.02 -0.02,621.88l-0.01 0.01c-155.99,155.98 -403.06,169.61 -574.95,40.68 8.75,-7.53 17.28,-15.42 25.56,-23.71l82.34 -82.35z"/>
  <path class="fil4" d="M12652.64 15985.81c0,-30.78 -21.62,-42.73 -49.59,-54.43 -25.69,-10.43 -39.42,-18.31 -39.42,-36.37 0,-17.29 15,-28.23 34.08,-28.23 17.8,0 33.57,6.61 43.74,26.7l1.78 -1.01 -2.29 -21.11c-9.15,-7.89 -22.89,-12.46 -41.96,-12.46 -28.49,0 -51.63,15.26 -51.63,43.23 0,23.65 17.29,34.85 45.01,47.05 26.45,11.45 42.99,21.37 42.99,42.22 0,20.35 -15.26,35.1 -39.17,35.1 -19.58,0 -39.93,-11.19 -52.14,-33.83l-2.03 0.77 4.07 24.92c10.68,9.16 30.26,16.02 49.59,16.02 32.05,0 56.97,-18.31 56.97,-48.57zm141.91 -78.08c0,-27.98 -27.46,-45.27 -73.24,-45.27 -10.43,0 -24.42,0.25 -34.34,0.76l0 1.27c4.33,0.51 7.63,2.8 7.89,10.68 0.25,7.38 0.5,31.79 0.5,71.47 0,39.42 -0.25,63.84 -0.5,71.47 -0.26,6.86 -2.29,9.15 -7.89,11.44l0.26 1.27c5.08,-0.51 12.2,-0.76 17.8,-0.76 5.85,0 13.22,0.25 18.06,0.76l0.25 -1.27c-5.59,-2.29 -7.63,-4.58 -7.88,-11.44 -0.26,-7.38 -0.51,-31.54 -0.51,-60.03 3.05,0.26 5.34,0.26 7.88,0.26 43.49,0 71.72,-16.53 71.72,-50.61zm-21.62 0c0,25.68 -13.73,43.23 -48.06,43.23 -3.31,0 -6.62,0 -9.92,-0.25 0,-39.68 0.25,-69.18 0.51,-81.64 38.65,0 57.47,9.92 57.47,38.66zm173.46 107.32c-15.01,-29.5 -53.67,-111.65 -73,-154.37l-3.56 0c-21.4,48.57 -56.25,121.31 -73.84,156.41 -3.56,7.37 -8.9,10.94 -13.73,12.46l0.25 1.27c4.84,-0.51 9.92,-0.76 15.81,-0.76 4.84,0 10.94,0.25 16.28,1.02l0.26 -1.53c-7.38,-2.54 -9.67,-6.1 -6.36,-14.5 3.56,-8.64 9.41,-21.87 16.02,-36.87l82.4 0c8.4,18.05 15.26,33.06 18.06,39.67 3.05,6.36 1.02,9.16 -6.1,11.7l0.5 1.53c6.62,-0.77 15.01,-1.02 21.37,-1.02 6.36,0 13.99,0.25 20.34,0.76l0.26 -1.27c-5.09,-1.52 -11.19,-7.12 -15.01,-14.5l0.05 0zm-118.56 -44.76c12.46,-28.48 27.46,-61.55 37.13,-82.15 8.9,18.57 24.92,52.9 38.4,82.15l-75.53 0zm268.11 56.46c-9.41,2.04 -15.77,-4.83 -33.07,-34.59 -10.42,-18.05 -23.14,-36.87 -37.64,-41.96 29.51,-4.83 50.11,-19.84 50.11,-45.78 0,-22.89 -21.37,-41.96 -68.16,-41.96 -10.43,0 -24.42,0.25 -34.34,0.76l0 1.27c4.33,0.51 7.63,2.8 7.89,10.68 0.25,7.38 0.5,31.79 0.5,71.47 0,39.42 -0.25,63.84 -0.5,71.47 -0.26,6.86 -2.29,9.15 -7.89,11.44l0.26 1.27c5.08,-0.51 12.2,-0.76 17.8,-0.76 5.85,0 13.22,0.25 18.06,0.76l0.25 -1.27c-5.59,-2.29 -7.63,-4.58 -7.88,-11.44 -0.26,-7.63 -0.51,-32.05 -0.51,-66.89 3.56,0.25 7.12,0.25 10.93,0.25 13.99,2.29 22.89,18.57 29.51,36.12 8.13,22.38 16.53,44.76 39.42,44.76 5.59,0 11.44,-1.02 15.51,-4.07l-0.25 -1.53zm-94.61 -157.94c36.62,0 52.39,10.94 52.39,35.61 0,23.15 -12.97,39.93 -44.76,39.93 -2.8,0 -5.34,-0.25 -8.14,-0.51 0,-33.57 0.25,-62.31 0.51,-75.03zm249.49 146.46c-16.53,-16.28 -45.52,-45.83 -82.91,-84.27l63.84 -54.77c8.65,-7.37 17.8,-11.23 22.63,-12.5l-0.25 -1.27c-5.34,0.51 -12.97,0.76 -17.8,0.76 -5.09,0 -11.45,-0.25 -18.32,-0.76l-0.25 1.27c5.09,1.27 5.85,6.14 -2.29,14.03 -11.19,11.44 -36.88,35.14 -74.77,69.26l0 -0.25c0,-39.72 0.25,-64.18 0.51,-71.81 0.25,-6.61 2.29,-9.2 7.88,-11.23l-0.25 -1.27c-4.84,0.51 -12.21,0.76 -17.81,0.76 -5.85,0 -12.97,-0.25 -18.05,-0.76l-0.26 1.27c5.6,2.29 7.63,4.62 7.89,11.49 0.25,7.37 0.5,31.83 0.5,71.55 0,39.29 -0.25,63.71 -0.5,71.34 -0.26,6.86 -2.29,9.15 -7.89,11.44l0.26 1.27c5.08,-0.51 12.2,-0.76 18.05,-0.76 5.6,0 12.97,0.25 17.81,0.76l0.25 -1.27c-5.59,-2.29 -7.63,-4.58 -7.88,-11.44 -0.26,-7.12 -0.51,-28.74 -0.51,-63.59 4.83,-4.07 9.15,-7.88 13.48,-11.44 31.03,31.96 56.71,57.94 70.96,72.7 6.61,7.37 5.59,12.5 -0.26,14.28l0.26 1.27c5.34,-1.02 20.6,-1.27 25.43,-1.27 5.08,0 17.8,0.25 22.63,1.02l0.26 -1.27c-4.83,-1.28 -15.26,-7.38 -22.64,-14.76l0 0.22zm230.68 14.28c-5.59,-2.29 -7.63,-4.58 -7.88,-11.44 -0.26,-7.63 -0.51,-32.05 -0.51,-71.47 0,-39.68 0.25,-64.09 0.51,-71.72 0.25,-6.61 2.29,-9.16 7.88,-11.19l-0.25 -1.27c-4.84,0.51 -12.21,0.76 -17.81,0.76 -5.85,0 -12.97,-0.25 -18.05,-0.76l-0.26 1.27c5.6,2.29 7.63,4.58 7.89,11.44 0.25,7.38 0.5,31.79 0.5,71.47 0,39.42 -0.25,63.84 -0.5,71.47 -0.26,6.86 -2.29,9.15 -7.89,11.44l0.26 1.27c5.08,-0.51 12.2,-0.76 18.05,-0.76 5.6,0 12.97,0.25 17.81,0.76l0.25 -1.27zm198.88 -167.09c-4.83,0.51 -9.41,0.76 -13.22,0.76 -4.07,0 -8.65,-0.25 -12.72,-0.76l-0.25 1.27c4.07,1.52 7.37,3.56 7.88,10.43 0.77,12.71 1.78,34.08 1.78,72.48 0,20.85 0.26,39.93 0.51,54.17 -34.08,-37.38 -76.3,-84.44 -122.59,-137.84 -4.32,0.5 -8.64,0.5 -12.97,0.5 -3.81,-0.25 -8.9,-0.5 -15,-1.01l-0.26 1.27c6.11,2.54 9.16,6.87 9.41,15.26 0.26,6.86 0.51,27.97 0.51,67.65 0,39.42 -0.76,59.77 -1.52,72.48 -0.26,6.62 -3.56,8.65 -7.89,10.43l0.26 1.27c4.83,-0.51 9.41,-0.76 13.22,-0.76 4.07,0 8.65,0.25 12.72,0.76l0.25 -1.27c-4.07,-1.78 -7.37,-3.81 -7.88,-10.43 -0.76,-12.71 -1.78,-34.33 -1.78,-72.48 0,-31.79 0,-49.85 -0.51,-66.63 43.74,48.57 87.49,96.9 136.83,154.37l5.09 0c-0.77,-16.78 -1.02,-48.32 -1.02,-87.74 0,-39.68 0.76,-59.77 1.52,-72.48 0.26,-6.87 3.57,-8.91 7.89,-10.43l-0.26 -1.27zm68.67 167.09c-5.59,-2.29 -7.63,-4.58 -7.88,-11.44 -0.26,-7.63 -0.51,-32.05 -0.51,-71.47 0,-39.68 0.25,-64.09 0.51,-71.72 0.25,-6.61 2.29,-9.16 7.88,-11.19l-0.25 -1.27c-4.84,0.51 -12.21,0.76 -17.81,0.76 -5.85,0 -12.97,-0.25 -18.05,-0.76l-0.26 1.27c5.6,2.29 7.63,4.58 7.89,11.44 0.25,7.38 0.5,31.79 0.5,71.47 0,39.42 -0.25,63.84 -0.5,71.47 -0.26,6.86 -2.29,9.15 -7.89,11.44l0.26 1.27c5.08,-0.51 12.2,-0.76 18.05,-0.76 5.6,0 12.97,0.25 17.81,0.76l0.25 -1.27zm166.33 -146.49c-2.29,-5.6 -4.83,-14.25 -6.1,-19.84l-133.78 0c-1.02,5.59 -3.82,14.5 -6.11,20.09l1.28 1.02c15.77,-11.19 34.59,-15.01 57.98,-15.01l4.07 0 0 77.32c0,39.42 -0.25,63.84 -0.51,71.47 -0.25,6.86 -2.28,9.15 -7.88,11.44l0.25 1.27c5.09,-0.51 12.21,-0.76 17.81,-0.76 5.85,0 13.22,0.25 18.06,0.76l0.25 -1.27c-5.6,-2.29 -7.63,-4.58 -7.88,-11.44 -0.26,-7.63 -0.51,-32.05 -0.51,-71.47l0 -77.32 4.07 0c23.39,0 41.96,3.82 57.73,15.01l1.27 -1.27zm56.72 146.49c-5.59,-2.29 -7.63,-4.58 -7.88,-11.44 -0.26,-7.63 -0.51,-32.05 -0.51,-71.47 0,-39.68 0.25,-64.09 0.51,-71.72 0.25,-6.61 2.29,-9.16 7.88,-11.19l-0.25 -1.27c-4.84,0.51 -12.21,0.76 -17.81,0.76 -5.85,0 -12.97,-0.25 -18.05,-0.76l-0.26 1.27c5.6,2.29 7.63,4.58 7.89,11.44 0.25,7.38 0.5,31.79 0.5,71.47 0,39.42 -0.25,63.84 -0.5,71.47 -0.26,6.86 -2.29,9.15 -7.89,11.44l0.26 1.27c5.08,-0.51 12.2,-0.76 18.05,-0.76 5.6,0 12.97,0.25 17.81,0.76l0.25 -1.27zm175.49 -14.5c-15.01,-29.5 -53.67,-111.65 -73,-154.37l-3.56 0c-21.4,48.57 -56.25,121.31 -73.84,156.41 -3.56,7.37 -8.9,10.94 -13.73,12.46l0.25 1.27c4.84,-0.51 9.92,-0.76 15.81,-0.76 4.84,0 10.94,0.25 16.28,1.02l0.26 -1.53c-7.38,-2.54 -9.67,-6.1 -6.36,-14.5 3.56,-8.64 9.41,-21.87 16.02,-36.87l82.4 0c8.4,18.05 15.26,33.06 18.06,39.67 3.05,6.36 1.02,9.16 -6.1,11.7l0.5 1.53c6.62,-0.77 15.01,-1.02 21.37,-1.02 6.36,0 13.99,0.25 20.34,0.76l0.26 -1.27c-5.09,-1.52 -11.19,-7.12 -15.01,-14.5l0.05 0zm-118.56 -44.76c12.46,-28.48 27.46,-61.55 37.13,-82.15 8.9,18.57 24.92,52.9 38.4,82.15l-75.53 0zm255.39 -87.23c-2.29,-5.6 -4.83,-14.25 -6.1,-19.84l-133.78 0c-1.02,5.59 -3.82,14.5 -6.11,20.09l1.28 1.02c15.77,-11.19 34.59,-15.01 57.98,-15.01l4.07 0 0 77.32c0,39.42 -0.25,63.84 -0.51,71.47 -0.25,6.86 -2.28,9.15 -7.88,11.44l0.25 1.27c5.09,-0.51 12.21,-0.76 17.81,-0.76 5.85,0 13.22,0.25 18.06,0.76l0.25 -1.27c-5.6,-2.29 -7.63,-4.58 -7.88,-11.44 -0.26,-7.63 -0.51,-32.05 -0.51,-71.47l0 -77.32 4.07 0c23.39,0 41.96,3.82 57.73,15.01l1.27 -1.27zm131.75 147c2.29,-5.85 6.61,-15.26 9.15,-20.09l-1.27 -1.02c-16.78,12.46 -44.51,15.01 -73.5,15.01l-17.29 0c-0.26,-9.67 -0.51,-38.92 -0.51,-76.56 55.95,0.26 59.51,1.53 62.56,10.68l1.27 -0.25c-0.76,-4.58 -1.01,-8.14 -1.01,-13.73 0,-5.6 0.25,-8.91 1.01,-13.74l-1.27 -0.25c-2.79,8.39 -6.61,10.43 -62.56,10.68 0,-34.08 0.25,-60.53 0.51,-70.96 7.37,-0.51 14.75,-0.76 21.61,-0.76 22.89,0 42.73,2.54 57.23,15l1.52 -1.01c-2.54,-6.11 -4.83,-13.99 -6.1,-19.84l-84.44 0c-5.85,0 -12.97,-0.25 -18.05,-0.76l-0.26 1.27c5.6,2.29 7.63,4.58 7.89,11.44 0.25,7.38 0.5,31.79 0.5,71.47 0,39.42 -0.25,63.84 -0.5,71.47 -0.26,6.86 -2.29,9.15 -7.89,11.44l0.26 1.27c5.08,-0.51 12.2,-0.76 18.05,-0.76l93.09 0zm333.94 -15.01c-15.01,-29.5 -53.67,-111.65 -73,-154.37l-3.56 0c-21.4,48.57 -56.25,121.31 -73.84,156.41 -3.56,7.37 -8.9,10.94 -13.73,12.46l0.25 1.27c4.84,-0.51 9.92,-0.76 15.81,-0.76 4.84,0 10.94,0.25 16.28,1.02l0.26 -1.53c-7.38,-2.54 -9.67,-6.1 -6.36,-14.5 3.56,-8.64 9.41,-21.87 16.02,-36.87l82.4 0c8.4,18.05 15.26,33.06 18.06,39.67 3.05,6.36 1.02,9.16 -6.1,11.7l0.5 1.53c6.62,-0.77 15.01,-1.02 21.37,-1.02 6.36,0 13.99,0.25 20.34,0.76l0.26 -1.27c-5.09,-1.52 -11.19,-7.12 -15.01,-14.5l0.05 0zm-118.56 -44.76c12.46,-28.48 27.46,-61.55 37.13,-82.15 8.9,18.57 24.92,52.9 38.4,82.15l-75.53 0zm268.11 56.46c-9.41,2.04 -15.77,-4.83 -33.07,-34.59 -10.42,-18.05 -23.14,-36.87 -37.64,-41.96 29.51,-4.83 50.11,-19.84 50.11,-45.78 0,-22.89 -21.37,-41.96 -68.16,-41.96 -10.43,0 -24.42,0.25 -34.34,0.76l0 1.27c4.33,0.51 7.63,2.8 7.89,10.68 0.25,7.38 0.5,31.79 0.5,71.47 0,39.42 -0.25,63.84 -0.5,71.47 -0.26,6.86 -2.29,9.15 -7.89,11.44l0.26 1.27c5.08,-0.51 12.2,-0.76 17.8,-0.76 5.85,0 13.22,0.25 18.06,0.76l0.25 -1.27c-5.59,-2.29 -7.63,-4.58 -7.88,-11.44 -0.26,-7.63 -0.51,-32.05 -0.51,-66.89 3.56,0.25 7.12,0.25 10.93,0.25 13.99,2.29 22.89,18.57 29.51,36.12 8.13,22.38 16.53,44.76 39.42,44.76 5.59,0 11.44,-1.02 15.51,-4.07l-0.25 -1.53zm-94.61 -157.94c36.62,0 52.39,10.94 52.39,35.61 0,23.15 -12.97,39.93 -44.76,39.93 -2.8,0 -5.34,-0.25 -8.14,-0.51 0,-33.57 0.25,-62.31 0.51,-75.03zm147.76 160.74c-5.59,-2.29 -7.63,-4.58 -7.88,-11.44 -0.26,-7.63 -0.51,-32.05 -0.51,-71.47 0,-39.68 0.25,-64.09 0.51,-71.72 0.25,-6.61 2.29,-9.16 7.88,-11.19l-0.25 -1.27c-4.84,0.51 -12.21,0.76 -17.81,0.76 -5.85,0 -12.97,-0.25 -18.05,-0.76l-0.26 1.27c5.6,2.29 7.63,4.58 7.89,11.44 0.25,7.38 0.5,31.79 0.5,71.47 0,39.42 -0.25,63.84 -0.5,71.47 -0.26,6.86 -2.29,9.15 -7.89,11.44l0.26 1.27c5.08,-0.51 12.2,-0.76 18.05,-0.76 5.6,0 12.97,0.25 17.81,0.76l0.25 -1.27zm143.44 -43.74c0,-30.78 -21.62,-42.73 -49.59,-54.43 -25.69,-10.43 -39.42,-18.31 -39.42,-36.37 0,-17.29 15,-28.23 34.08,-28.23 17.8,0 33.57,6.61 43.74,26.7l1.78 -1.01 -2.29 -21.11c-9.15,-7.89 -22.89,-12.46 -41.96,-12.46 -28.49,0 -51.63,15.26 -51.63,43.23 0,23.65 17.29,34.85 45.01,47.05 26.45,11.45 42.99,21.37 42.99,42.22 0,20.35 -15.26,35.1 -39.17,35.1 -19.58,0 -39.93,-11.19 -52.14,-33.83l-2.03 0.77 4.07 24.92c10.68,9.16 30.26,16.02 49.59,16.02 32.05,0 56.97,-18.31 56.97,-48.57zm145.73 44.25c2.29,-5.85 6.61,-15.26 9.15,-20.09l-1.27 -1.02c-16.78,12.46 -44.51,15.01 -73.5,15.01l-17.29 0c-0.26,-9.67 -0.51,-38.92 -0.51,-76.56 55.95,0.26 59.51,1.53 62.56,10.68l1.27 -0.25c-0.76,-4.58 -1.01,-8.14 -1.01,-13.73 0,-5.6 0.25,-8.91 1.01,-13.74l-1.27 -0.25c-2.79,8.39 -6.61,10.43 -62.56,10.68 0,-34.08 0.25,-60.53 0.51,-70.96 7.37,-0.51 14.75,-0.76 21.61,-0.76 22.89,0 42.73,2.54 57.23,15l1.52 -1.01c-2.54,-6.11 -4.83,-13.99 -6.1,-19.84l-84.44 0c-5.85,0 -12.97,-0.25 -18.05,-0.76l-0.26 1.27c5.6,2.29 7.63,4.58 7.89,11.44 0.25,7.38 0.5,31.79 0.5,71.47 0,39.42 -0.25,63.84 -0.5,71.47 -0.26,6.86 -2.29,9.15 -7.89,11.44l0.26 1.27c5.08,-0.51 12.2,-0.76 18.05,-0.76l93.09 0z"/>
  <path class="fil3" d="M13342.53 15988.9c1.73,-10.36 6.58,-21.4 14.3,-27.98 6.58,-7.72 17.62,-12.57 27.97,-14.3 -10.35,-1.73 -21.39,-6.58 -27.97,-14.3 -7.72,-6.58 -12.57,-17.62 -14.3,-27.97 -1.73,10.35 -6.58,21.39 -14.3,27.97 -6.58,7.72 -17.62,12.57 -27.97,14.3 10.35,1.73 21.39,6.58 27.97,14.3 7.72,6.58 12.57,17.62 14.3,27.98z"/>
  <path class="fil3" d="M14516.39 15988.9c1.74,-10.36 6.58,-21.4 14.31,-27.98 6.57,-7.72 17.61,-12.57 27.97,-14.3 -10.36,-1.73 -21.39,-6.58 -27.97,-14.3 -7.73,-6.58 -12.57,-17.62 -14.31,-27.97 -1.73,10.35 -6.57,21.39 -14.3,27.97 -6.57,7.72 -17.62,12.57 -27.97,14.3 10.35,1.73 21.4,6.58 27.97,14.3 7.73,6.58 12.57,17.62 14.3,27.98z"/>
  <path class="fil3" d="M15607.84 15117.48c30.44,0 55.11,24.67 55.11,55.11 0,30.43 -24.67,55.1 -55.11,55.1 -30.44,0 -55.11,-24.67 -55.11,-55.1 0,-30.44 24.67,-55.11 55.11,-55.11zm0 9.49c25.19,0 45.61,20.42 45.61,45.62 0,25.19 -20.42,45.61 -45.61,45.61 -25.19,0 -45.61,-20.42 -45.61,-45.61 0,-25.2 20.42,-45.62 45.61,-45.62z"/>
  <path class="fil3" d="M15617.95 15203.81l-14.38 -24.98 -7.81 0 0 24.98 -10.25 0 0 -62.45 21.57 0c4.79,0 8.85,0.84 12.17,2.52 3.33,1.68 5.81,3.92 7.46,6.74 1.65,2.81 2.47,5.96 2.47,9.43 0,4.08 -1.18,7.77 -3.55,11.1 -2.36,3.32 -6,5.58 -10.91,6.78l15.45 25.88 -12.22 0zm-22.19 -33.16l11.32 0c3.83,0 6.72,-0.95 8.67,-2.87 1.94,-1.92 2.92,-4.49 2.92,-7.73 0,-3.23 -0.96,-5.76 -2.88,-7.59 -1.91,-1.83 -4.82,-2.74 -8.71,-2.74l-11.32 0 0 20.93z"/>
 </g>
</svg>
